<svg width="1024" height="1024" viewBox="0 0 1024 1024" fill="none" xmlns="http://www.w3.org/2000/svg">
  <path d="M864.001 0H160C71.6406 0 0 71.6406 0 160V864.001C0 952.36 71.6406 1024 160 1024H864.001C952.36 1024 1024 952.36 1024 864.001V160C1024 71.6406 952.36 0 864.001 0Z" fill="currentColor"/>
  <path d="M757.907 566.792L566.793 757.906C560.841 763.858 553.124 767.334 545.407 767.334C537.69 767.334 529.973 763.858 524.021 757.906L266.095 499.98C254.19 488.075 254.19 468.935 266.095 457.03L457.209 265.915C463.161 259.963 470.878 256.487 478.595 256.487C486.312 256.487 494.029 259.963 499.981 265.915L757.907 523.841C769.812 535.746 769.812 554.886 757.907 566.792Z" fill="white"/>
</svg>